<svg xmlns="http://www.w3.org/2000/svg" width="400" height="124.859"><path fill="#FF5C00" d="M124.58 4.73l56.247 120.13 17.745-37.9L160.23 4.73m125.336 0h-112.34l36.966 79.276 19.13 40.853"/><path fill="#F00" d="M0 4.73h112.198v31.406H0z"/><path fill="#F00" d="M0 4.73h112.198v31.406H0zm0 42.86h112.198v68.342H0z"/><path fill="#F00" d="M0 47.59h112.198v68.342H0z"/><path fill="#FFB100" d="M400 66.553c-2.904 30.864-28.877 55.015-60.487 55.015-33.555 0-60.755-27.214-60.755-60.783 0-33.57 27.2-60.784 60.755-60.784 31.527 0 57.446 24.027 60.464 54.775h-60.44c-3.253 0-5.892 2.638-5.892 5.89 0 3.253 2.638 5.89 5.892 5.89H400z"/></svg>